<?xml version="1.0" encoding="utf-8"?><!-- Uploaded to: SVG Repo, www.svgrepo.com, Generator: SVG Repo Mixer Tools -->
<svg version="1.1" id="designs" xmlns="http://www.w3.org/2000/svg" xmlns:xlink="http://www.w3.org/1999/xlink" 
	 width="800px" height="800px" viewBox="0 0 32 32" xml:space="preserve">
<style type="text/css">
	.scienceandfiction_een{fill:#2B4099;}
	.scienceandfiction_twee{fill:#CC2954;}
</style>
<path class="scienceandfiction_een" d="M13,8V7h1v1H13z M17,8V7h-1v1H17z M13.44,12.5c-1.45-0.75-2.44-2.26-2.44-4
	C11,6.02,13.02,4,15.5,4C17.98,4,20,6.02,20,8.5c0,1.74-0.99,3.25-2.44,4h1.71c1.07-1,1.73-2.42,1.73-4C21,5.46,18.54,3,15.5,3
	C12.46,3,10,5.46,10,8.5c0,1.58,0.66,3,1.73,4H13.44z M28,18v-1h-2v-1h1v-1h-2v2h-2.09c-0.57-0.98-1.33-1.84-2.25-2.5H20.5v1.16
	c0.17,0.13,0.34,0.29,0.5,0.45c1.24,1.26,2,2.99,2,4.89v1c0,3.86-3.14,7-7,7h-1c-3.86,0-7-3.14-7-7v-1c0-2.94,1.83-5.47,4.41-6.5
	h-2.07c-0.92,0.66-1.68,1.52-2.25,2.5H6v-2H4v1h1v1H3v1h2v1H4v1h2v-2h1.59C7.21,18.93,7,19.94,7,21v1c0,4.42,3.58,8,8,8h1
	c4.42,0,8-3.58,8-8v-1c0-1.06-0.21-2.07-0.59-3H25v2h2v-1h-1v-1H28z"/>
<path class="scienceandfiction_twee" d="M14,17v1h-1v-1H14L14,17z M14,19h-1v1h1V19L14,19z M14,21h-1v1h1V21L14,21z M22,15h-1v6h-3
	v-6H9v-3h13V15z M11,14v-1h-1v1H11z M13,14v-1h-1v1H13z M15,14v-1h-1v1H15z M17,14v-1h-1v1H17z M18,14h1v-1h-1V14z M20,19h-1v1h1V19
	z M20,17h-1v1h1V17z M20,15h-1v1h1V15z M21,13h-1v1h1V13z M15,9H7v1h8V9L15,9z"/>
</svg>